/* XPM */
static char *abaa32d0a7b54a65af7c5d370674504aPq4xPkhordNuO93x[] = {
/* columns rows colors chars-per-pixel */
"16 32 140 2 ",
"   c #070403",
".  c #090604",
"X  c #0D0906",
"o  c #0E0B08",
"O  c #110D09",
"+  c #15110C",
"@  c #19130E",
"#  c #171611",
"$  c #1D1B15",
"%  c #201710",
"&  c #231B14",
"*  c #2A1F16",
"=  c #2E2117",
"-  c #25221C",
";  c #2B241D",
":  c #34251B",
">  c #332A1F",
",  c #3B2B1E",
"<  c #2C2B24",
"1  c #342A20",
"2  c #3A2D21",
"3  c #2C342B",
"4  c #3A3127",
"5  c #363029",
"6  c #3C352D",
"7  c #39382F",
"8  c #303B32",
"9  c #521E1C",
"0  c #54201D",
"q  c #572B22",
"w  c #5B2E24",
"e  c #54262C",
"r  c #433326",
"t  c #4A3426",
"y  c #44362B",
"u  c #4E3629",
"i  c #513729",
"p  c #533C2C",
"a  c #5A3E2D",
"s  c #433B32",
"d  c #4A3F31",
"f  c #662B26",
"g  c #682827",
"h  c #632A2E",
"j  c #6A2A2D",
"k  c #66362A",
"l  c #73322E",
"z  c #692C33",
"x  c #6E3434",
"c  c #6D3339",
"v  c #743434",
"b  c #723F32",
"n  c #7D3935",
"m  c #73353A",
"M  c #7E343A",
"N  c #7A3A3E",
"B  c #344035",
"V  c #5B432F",
"C  c #474036",
"Z  c #4D4133",
"A  c #47413B",
"S  c #4C443E",
"D  c #514735",
"F  c #5A4333",
"G  c #5D4B35",
"H  c #544A3E",
"J  c #614332",
"K  c #654837",
"L  c #654D3C",
"P  c #6B4D3B",
"I  c #784537",
"U  c #7A4738",
"Y  c #734E3C",
"T  c #7D4B3C",
"R  c #6F513E",
"E  c #743B44",
"W  c #7D3C42",
"Q  c #3E4C42",
"!  c #4F4740",
"~  c #4F4E43",
"^  c #504740",
"/  c #534B42",
"(  c #594F46",
")  c #4B584C",
"_  c #565043",
"`  c #595146",
"'  c #5C544A",
"]  c #5F584D",
"[  c #7C414A",
"{  c #645443",
"}  c #655648",
"|  c #625A4E",
" . c #6B5E4C",
".. c #755542",
"X. c #7A5440",
"o. c #7E5944",
"O. c #655D52",
"+. c #695F53",
"@. c #706248",
"#. c #676055",
"$. c #6B6256",
"%. c #6E6558",
"&. c #736655",
"*. c #776854",
"=. c #746B5C",
"-. c #786C59",
";. c #7B715F",
":. c #7A7162",
">. c #7E7463",
",. c #7D7565",
"<. c #813D39",
"1. c #843F3B",
"2. c #85403B",
"3. c #87413C",
"4. c #89433E",
"5. c #8A443F",
"6. c #803C43",
"7. c #823F49",
"8. c #8B4640",
"9. c #8A4943",
"0. c #824048",
"q. c #874249",
"w. c #88434A",
"e. c #895244",
"r. c #895846",
"t. c #805E49",
"y. c #8D634C",
"u. c #85745F",
"i. c #807766",
"p. c #847A68",
"a. c #877C6A",
"s. c #897C6B",
"d. c #91846E",
"f. c #8E8371",
"g. c #948673",
"h. c #968874",
"j. c #998A73",
"k. c #9B8F78",
"l. c #9F917A",
"z. c #A3937B",
/* pixels */
"8.w.1.x q 9 9 0 q w g j c W W 9.",
"[ A A S S S S S ! ! ! S ! ! H [ ",
"e S S S ! S ! S ! ! ! ! / S ^ E ",
"h S S S ! ! ! ! / / / / / / / 7.",
"c S ! ! / S 7 ; 1 ^ / / / / ( 7.",
"c S / H / S i X.u 6 ( ( ( ( ( 7.",
"v ! / / _ s o.y...1 ( ( ( ( ( 7.",
"z / / / _ C R J F % ( ' ' ' ' W ",
"m / ( ( ` ( t.P J & } ] ] ] ] 6.",
"5.( ( ` ' ] X.P a : O.| ] ] ] q.",
"8.` ` ] ] | R J i 1 O.O.O.O.| 8.",
"1.` ] | | O.L t : 7 $.#.+.+.O.1.",
"v ] ] | O.#.} Z 8 # ] %.$.$.%.<.",
"b | O.O.#.#.~ ) 3 o + 5 ] %.%.U ",
"b | #.#.%._ > Q - O # O # %.=.U ",
"b +.$.&.( + G 3 $ + O O O ] =.U ",
"I $.%.=.- & @.& $ @ + + + ` :.I ",
"e.&.=.=.+ > D - s + O O O / ,.I ",
"5.=.=.#.+ y 1 + @ O O O O / i.v ",
"5.=.&.{ + Z - + @ O o O O s p.<.",
"3.;.G K K F + + O . O O O 4 s.8.",
"2.>.y u o.R 3 O O O . O O / s.8.",
"<.i.F : Y L B O O O O O O ( f.4.",
"n p.{ y * < 3 O + O O O X O.g.8.",
"W s.S X $ + $ o o O X X X a.h.7.",
"N d.&.- r O + .       ; } k.k.6.",
"N d.j.*.4 + + + O o o  .l.l.l.U ",
"N j.j.{ 2 @ + + O o + -.z.z.z.0.",
"m @.u.d 2 + + + O O + H &. .&.W ",
"m : : @ o + + + O o o * = , = W ",
"T p p # X + O O O o + = t V 2 r.",
"9.9.q.M n l f k k j j f h c c 8."
};
