/* XPM */
static char *bd4718b56c3d4a30936b699a6c130430q4ODTBSFDROuvvec[] = {
/* columns rows colors chars-per-pixel */
"32 32 7 1 ",
"  c #95C7E9",
". c #C2EAFF",
"X c #DBF3FF",
"o c #A1D4F7",
"O c #7CB5D5",
"+ c #4985A7",
"@ c #5C97B7",
/* pixels */
" .XXXXXXXXXXXXXXXXXXXXXXXXXXXX. ",
"  ...o...oo..........ooo..oo..  ",
"    oooo oooooo   ooooo  ooo    ",
"   O+++++++++++++++++@+++@@@O   ",
"   @@+++++++++++++++++++++@@@oo ",
"o  @+++++++++++@@+++@+++++@@@oo ",
" oo++@@+++++++@@++@@@+++++@@@oo ",
" oo++@@++++++++++++@@@+++@@@@oo ",
" oo@@@+++++++++++++@@@@@@@@@@oo ",
" oo@@@@+++@+++@++++@@@@@@@@@@oo ",
" oo@@@@@@@@++@@@++@@@@@@@@@@@oo ",
" oo@@@@@@@@@@@@@@@@@@@@@@@@@@oo ",
" oo@@@@@@@@@@@@@@@@@@@@@@@@@@oo ",
" oo@Oo@@@@@@Oo@@@@@@@Oo@@@@@@oo ",
" oo@Ooo@@@@@Ooo@@@@@@Ooo@@@@@oo ",
" ooOOooo@@@@Oooo@@@@@Oooo@@@@oo ",
" ooOOoooo@@@Ooooo@@@@Ooooo@@@oo ",
" ooOOooooo@@Oooooo@@@Oooooo@@oo ",
" ooOOooooooOOoooooo@@OooooooOoo ",
" oooOoooooooOoooooooOOooooooooo ",
" ooooooo.ooooo..oooooooooooooooO",
" ooooooooooooo..oooooooooooooooO",
" o..ooooooooooooooooo.ooooooooo ",
"Oo..ooooooooooooooooooooo..ooo  ",
" ooooooooooo.oooooo..oooo..ooo O",
"Oooooooooooooooooo....oooooooooO",
"Oooooo..oooooooooo....oooooooooO",
"Ooooo.oo.ooooo..ooo..ooooooooooO",
"Ooooo.oo.ooooo..ooooooooo.oooooO",
"Oooooo..oooooooooooooooooooooo O",
"O          OO        O  OOO    O",
"OO@@@@@@@@@@@@@@@@@@@@@@@@@@@@@O"
};
