/* XPM */
static char *_519d5c86ff749ca8883444bd7630178WLUzE5vo68WlqYjn[] = {
/* columns rows colors chars-per-pixel */
"32 32 174 2 ",
"   c #0A0F17",
".  c #0C121A",
"X  c #10151C",
"o  c #29110F",
"O  c #2A0F12",
"+  c #271011",
"@  c #2A1313",
"#  c #2E1A15",
"$  c #2E1618",
"%  c #311616",
"&  c #321A16",
"*  c #311619",
"=  c #341A1A",
"-  c #37201B",
";  c #131724",
":  c #141A26",
">  c #171C2B",
",  c #1C1C2A",
"<  c #1C1F34",
"1  c #2B1D20",
"2  c #1C212D",
"3  c #1B2433",
"4  c #1F2837",
"5  c #1D2638",
"6  c #1E293A",
"7  c #3A2E2D",
"8  c #252735",
"9  c #242A35",
"0  c #2B2C35",
"q  c #232C3B",
"w  c #2E2E3D",
"e  c #26323F",
"r  c #29323F",
"t  c #3B3635",
"y  c #373539",
"u  c #3D3B3C",
"i  c #482E2B",
"p  c #412F33",
"a  c #493534",
"s  c #403836",
"d  c #403E3F",
"f  c #553D3B",
"g  c #613E3A",
"h  c #4C433F",
"j  c #52423B",
"k  c #63423B",
"l  c #69483F",
"z  c #232D40",
"x  c #2B2D42",
"c  c #263143",
"v  c #2C3443",
"b  c #2E3846",
"n  c #2B344A",
"m  c #2E3A4D",
"M  c #323744",
"N  c #323945",
"B  c #3C3B47",
"V  c #323C4B",
"C  c #2F3B50",
"Z  c #313F53",
"A  c #373D59",
"S  c #413F40",
"D  c #3F414C",
"F  c #354255",
"G  c #3A4352",
"H  c #3C4857",
"J  c #39475A",
"K  c #3E4A59",
"L  c #444244",
"P  c #494646",
"I  c #4A4947",
"U  c #474548",
"Y  c #494748",
"T  c #4C4A4A",
"R  c #5B4544",
"E  c #514D4D",
"W  c #58514E",
"Q  c #424553",
"!  c #484957",
"~  c #424E5F",
"^  c #514F50",
"/  c #545253",
"(  c #5A5556",
")  c #5C5857",
"_  c #5B5759",
"`  c #5D5A5B",
"'  c #644642",
"]  c #6C4A45",
"[  c #634B4A",
"{  c #6E4F48",
"}  c #665550",
"|  c #6C5851",
" . c #615D5E",
".. c #7D5C55",
"X. c #76655C",
"o. c #464F6E",
"O. c #475165",
"+. c #545B6D",
"@. c #575F73",
"#. c #635F60",
"$. c #5D6278",
"%. c #646061",
"&. c #766664",
"*. c #646877",
"=. c #737079",
"-. c #85574E",
";. c #8C5E51",
":. c #8C625B",
">. c #8B675C",
",. c #94645B",
"<. c #95685A",
"1. c #846864",
"2. c #926D67",
"3. c #9E6D61",
"4. c #84726E",
"5. c #8D736B",
"6. c #97766B",
"7. c #9E796C",
"8. c #8B7974",
"9. c #9A7A73",
"0. c #A9786B",
"q. c #A77C71",
"w. c #AD7D70",
"e. c #92817C",
"r. c #AB8377",
"t. c #B28575",
"y. c #B8877A",
"u. c #C0927F",
"i. c #5A6A94",
"p. c #646D82",
"a. c #687387",
"s. c #737C8A",
"d. c #6D7A99",
"f. c #777E92",
"g. c #6D7FA7",
"h. c #7C8599",
"j. c #7A8BB2",
"k. c #9A8789",
"l. c #818593",
"z. c #A68883",
"x. c #B68D81",
"c. c #BE9183",
"v. c #BA9689",
"b. c #8C95A7",
"n. c #9095A6",
"m. c #9AA6BE",
"M. c #C29589",
"N. c #C9978B",
"B. c #C59B8C",
"V. c #CB9D8E",
"C. c #CA9C92",
"Z. c #CCA395",
"A. c #D3A394",
"S. c #D2A697",
"D. c #D5AA9D",
"F. c #D3ADA1",
"G. c #DDB3A5",
"H. c #DFB9AD",
"J. c #E1BAAE",
"K. c #E2BEB5",
"L. c #E5C2B9",
"P. c #9EAACA",
"I. c #A2AECE",
"U. c #ABB3C5",
"Y. c #A7B1CF",
"T. c #AEBBD8",
"R. c #BBC1D5",
"E. c #BAC5DB",
"W. c #BBC7E2",
"Q. c #E6C7C0",
"!. c #C5CEE3",
"~. c #CBD3E7",
"^. c #CFD8EB",
"/. c #D1D9EC",
/* pixels */
"= = = - = & * % % % o @ o o o @ @ o o o + o o o o + @ $ @ $ $ & ",
"= t y y u u u u d d h u d L h ( ( E I I U U U P U I P T Y T T & ",
"@ u t u u u u u d d d d h I  .&.8.e.X.W I L L T U P I Y Y T T = ",
"+ u u u u u u L d d L L D W { 2.9.r.2.| h U T T I I T T T T T = ",
"@ u u u d u u L S L S L S | 1.r.B.V.B.1.j P I T T T T T T T T 1 ",
"@ u u u u L u L L S L L P | z.x.S.G.G.D.| h I T T T T T T T ^ = ",
"+ u B u d u d L L L L S a 5.>.t.S.Q.Q.G.r.P T T E T E E T E T = ",
"@ u u h u L u L S L L d 7 4...t.S.K.L.H.x.h E E E E T E ^ E ! = ",
"& B d d S S h h S S D h s 8.{ 0.V.J.L.H.v.P ^ ^ E E E E ^ E ^ = ",
"= S d d S S D S D h h D L 4.k ] 7.u.S.t.>.E ^ ^ ^ E W ^ / ^ / = ",
"& u h u S S L L L L D s d -.k k X.l v.{ <.I / / W / / / / / / & ",
"# h u D u h D L L L L h 7 l 6.q.D.<.Z.F.V.} / / / ( ( ( ( ( / & ",
"# B S S L L L L L h D h 1 h ;.c.A.-.N.G.B./ / / ( ( ( ( ( ( ( & ",
"@ h L L L L L L I D I I i j g <.N.i ,.A.9./ / _ ( ( ( ( ( ) ( = ",
"@ S L L L L L I I h I I 7 [ ] ,.y.,.w.A.6./ ( ( ( ( ( ( ) ` ) # ",
"# L L L L L I L I D I I y R { 3.3.w.C.y.5.( ( _ ) ) ` ( ` ` ` # ",
"- L L U P U U P U P T I L p R 3.:.,.0.w.5._ _ _ ` ` ` ` ` _ _ & ",
"- L L U P U P U I T I I O.7 a -.0.,.w.u.X.( _ ` `  . .` ` ` ` # ",
"= U L U P P U I P T T D o.o.$ f ,.M.A.7._ ` ` `  .} ` } ` ` ` & ",
"& U U U L P U I Y T T q c i.A 2 p ' ..=.` ` `  .`  .+. .` ` ` % ",
"& U U U P P U U Y T v 6 q h.j.g.S [ k.a.( _ ` `  .` #.` +. . .= ",
"* U P U U P T T U v z b e d.I.P.Y.! O.p.8 Q _ #. . .#. . . . .= ",
"% U P T Y Y Y M z z v m e O.W.E.T.M > a.6 5 C G )  .#.#.#. .` = ",
"% U P U P B 4 5 z m V b e F m.^.!.; 8 T.n z z C q D #.#. . . .= ",
"& U I P 9 3 9 v v N v 8 v c *.E.~.A > U.@.C m C q 6 / #. .#.#.& ",
"& U P 0 : 9 v v v v V H V c F E.!.+.< l.h.m F Z 6 3 N #.#.#.%.$ ",
"$ U I :   N V M v v V K K F e b./.$.x G U.c V Z 4 > 9 #.%.%.%.= ",
"$ P P .   v V v w v N N ~ H b O./.p.w 8 R.q J Z q : 2 %.#.%.%.= ",
"$ P U . . 4 F r e r N V F K F b U.f.w 0 n.G J F 9 : 2 +.#.%.%.$ ",
"* I B   . 9 V 0 9 r v V r H H b f.n.0 w *.+.F F 6 X 2 #.#.%.%.$ ",
"= T y   X z b q 2 e b D G b ~ D H U., w ! s.Z J 6 X > %.#.%.%.= ",
"= = = = = = * % % # @ o o o @ @ o + O O + O o + + + @ $ @ # = = "
};
