/* XPM */
static char *d1b1f555085941ccfea8754512c263c7LOl13agfpKJnXAp6[] = {
/* columns rows colors chars-per-pixel */
"16 16 173 2 ",
"   c #0A0B0B",
".  c #161717",
"X  c #171919",
"o  c #1B1B1A",
"O  c #1B1C1A",
"+  c gray11",
"@  c #21110F",
"#  c #2D1E14",
"$  c #241E18",
"%  c #35241A",
"&  c #202120",
"*  c #2D2826",
"=  c #273235",
"-  c #411D0D",
";  c #581617",
":  c #43200E",
">  c #4E230E",
",  c #4E240F",
"<  c #4C2B0E",
"1  c #4E2F0F",
"2  c #4B2212",
"3  c #4B2412",
"4  c #4C2714",
"5  c #4C2F13",
"6  c #4D2915",
"7  c #4E3010",
"8  c #4B3712",
"9  c #4C3713",
"0  c #672726",
"q  c #662D2C",
"w  c #692D2C",
"e  c #6C2E2D",
"r  c #702C25",
"t  c #743A2C",
"y  c #713F31",
"u  c #524C2C",
"i  c #775327",
"p  c #6C4936",
"a  c #764E36",
"s  c #77493B",
"d  c #765E3D",
"f  c #27424B",
"g  c #5C4C41",
"h  c #AE2523",
"j  c #A82424",
"k  c #C41F25",
"l  c #C81F24",
"z  c #CD1F25",
"x  c #D01D24",
"c  c #D91F26",
"v  c #C32025",
"b  c #CF2027",
"n  c #D32A30",
"m  c #D5343A",
"M  c #DD3A3F",
"N  c #967113",
"B  c #A45F27",
"V  c #816426",
"C  c #8D6D23",
"Z  c #8A6A2A",
"A  c #9E752F",
"S  c #997C28",
"D  c #8C7032",
"F  c #957237",
"G  c #D07D24",
"H  c #D63E42",
"J  c #E23B41",
"K  c #9D6C41",
"L  c #98745B",
"P  c #9D765F",
"I  c #99795E",
"U  c #AD7C6A",
"Y  c #E34348",
"T  c #E3464B",
"R  c #E4444A",
"E  c #E4474D",
"W  c #E44C4F",
"Q  c #E44A50",
"!  c #E54F54",
"~  c #E65257",
"^  c #E45457",
"/  c #E55459",
"(  c #E55B5E",
")  c #E55D5F",
"_  c #E66365",
"`  c #E66466",
"'  c #E86367",
"]  c #E76669",
"[  c #E86468",
"{  c #E8696D",
"}  c #E86E71",
"|  c #EA7377",
" . c #95870F",
".. c #B5A414",
"X. c #B79021",
"o. c #C5871F",
"O. c #C5B114",
"+. c #CFBB17",
"@. c #CC822C",
"#. c #CE852E",
"$. c #DC8723",
"%. c #DC8A22",
"&. c #D5892D",
"*. c #D5953A",
"=. c #DD9939",
"-. c #E1962E",
";. c #E39C32",
":. c #C7A63F",
">. c #CFB13D",
",. c #DCB833",
"<. c #DBB63C",
"1. c #D5B83E",
"2. c #EEA021",
"3. c #EEA126",
"4. c #EEA32E",
"5. c #E7A13B",
"6. c #E1BA3C",
"7. c #E2BE3C",
"8. c #DBC516",
"9. c #E1CB15",
"0. c #EFC61C",
"q. c #EFD616",
"w. c #F5DB16",
"e. c #F9DF16",
"r. c #EEC82F",
"t. c #F7CF2A",
"y. c #EDC933",
"u. c #ECC936",
"i. c #EDC43B",
"p. c #F9CB35",
"a. c #F2CF3A",
"s. c #F8CB39",
"d. c #F6D032",
"f. c #FAD433",
"g. c #FBD638",
"h. c #FCD738",
"j. c #F8D13F",
"k. c #F9D53D",
"l. c #888065",
"z. c #8D856C",
"x. c #9D8F65",
"c. c #A3806A",
"v. c #BE806B",
"b. c #B8886C",
"n. c #AA9B6B",
"m. c #B98871",
"M. c #A09677",
"N. c #A89B70",
"B. c #CC8F44",
"V. c #DF9C40",
"C. c #C6A852",
"Z. c #E4A145",
"A. c #C2AA62",
"S. c #C3AE69",
"D. c #E9C04E",
"F. c #F9CE41",
"G. c #F9CD45",
"H. c #F7CD4B",
"J. c #F7D145",
"K. c #FAD048",
"L. c #F4C650",
"P. c #F7CD52",
"I. c #F4CD56",
"U. c #F1C85B",
"Y. c #EBC564",
"T. c #F4C869",
"R. c #F5CE68",
"E. c #F7D06B",
"W. c #D3A48D",
"Q. c #D5AF8E",
"!. c #E0A78D",
"~. c #E6B797",
"^. c #E4C0A3",
/* pixels */
"7 2 2 2 < < 8 8 9 1 1 1 4 6 : 7 ",
": z c c c c c c c c c c c c z : ",
"- n R E T J ! / Q Y / j y h x - ",
"4 m ' | | [ ~ } } } { t W.P l 4 ",
"1 *.B.4.2.V.5.=.3.Z.;.K ~.I o.1 ",
", i.z.l.A.M.n.N.x.S.X.p m.b.N , ",
", 0.g.g.d.1.f.a.h.t.a s !.L @ , ",
"8 r.F.p.s.:.D.G.K.S Q.U v.d . 8 ",
"9 u.E.U.I.C.Y.T.R.D ^.g i u + 9 ",
"1 q.w.O...+.+.8.e.Z c.* # = & 1 ",
"1 q.k.L.j.H.J.P.9.A F X % f $ 1 ",
"1 q.y.<.,.7.>.6. .C V & o O   1 ",
"> %.-.@.G &.#.$.B 0 r e w q ; > ",
"3 H ( W ^ / ) M ( _ _ / ` ] m 3 ",
"5 k b b b b b b b b b b b b v 5 ",
"7 2 2 2 < < 8 8 9 1 1 1 4 6 : 7 "
};
