/* XPM */
static char *_be7bdf43c294962a4a315f2ae79f024CcE9hNIQlJKPZQRG[] = {
/* columns rows colors chars-per-pixel */
"32 32 8 1 ",
"  c #D5D2B3",
". c #E8EAD2",
"X c #F8F9EC",
"o c #C1B98F",
"O c #DDE0BD",
"+ c #F0F2D4",
"@ c #C1BD8F",
"# c #978C53",
/* pixels */
" ...XXXXXXXXXXXXXXXXXXXXXXXX..  ",
" oo......  ...........  .... oo ",
"oo      o                  o ooo",
"oo ..XX.X.XXXXXXXXXX..XX...X. oo",
"   .X....XXXXXXXXXXXXXXX....X oo",
"oo ..X..XXXX..OOOO..XXXXX...X  o",
"oo ...XXXX.          .XXXXX..  o",
"o  ...XXX              XXX...  o",
"o  .XXXX     O....O  o  XXXXX  o",
"o  .XXX     .XXXXXX.     XXX.  o",
"o  .XX.    XXXXXXXXXX    .XXX  o",
"o  XXX    XXXXX+XXXXXX    XXX  o",
"o  XX.   .XX+XX+++++XX.   .XX  o",
"o  XX.  OXXXXX+++++++++O  .XX  o",
"o  XXO  .XXXX++XXXX++++.  OXX  o",
"o  XXO  .X+X++XXXXXX+++.  OXX  o",
"o  XXO  .X+X++XXX+XXX++.  OXX @o",
"o  XXO  .XXX++XX++.XXXX.  OXX  o",
"o  XX.  OXXX+++X++XXXXXO  .XX oo",
"o  XX.   .XXX++++XXXXX.   .XX oo",
"o  XXX  o XXXXXXXXXXXX    XXXooo",
"o  XXX.    XXXXXXXXXX    .XXXooo",
"o  .XXX  oo .XXXXXX.     XXX.ooo",
"o  .XXXX oo  O....O     XXXX.ooo",
"o  ...XXX  o           XXXX.Xooo",
"o  ...XXXX.          .XXXXX.. oo",
"o  ....X.XXX..OOOO..XXXX.....  o",
"o  X..X..X.XXXXXXXXXXXX...... oo",
"oo .XX...XXXXXXXXXX.XX.XX.XX. oo",
"ooooo  o  oo             oo @@ o",
"oooooo  oooo          o ooo @@ o",
"o##############################o"
};
