/* XPM */
static char *_4c7e73b1c134fe9c706bee48891fe10p0dSeyWS4pgtCjRL[] = {
/* columns rows colors chars-per-pixel */
"20 20 14 1 ",
"  c black",
". c #0F1D0D",
"X c #131313",
"o c #284424",
"O c #2C4B29",
"+ c #D27700",
"@ c #56924E",
"# c #538253",
"$ c #5FA259",
"% c #78B25F",
"& c #7DC862",
"* c #FCB314",
"= c #FFD528",
"- c #ACF69D",
/* pixels */
"===****++++++++***==",
"=* * =    XXXXX  = =",
"=  ==   XXXXXXXXX =*",
"**==   XXXXXXXXXXX *",
"* =  XXXXXXXXXXXXX *",
"*=  XXXXXXXXXXXXXXX+",
"*   XX@&&$-&$@XXXXX+",
"+  XXX&$-%&%&@XXXXX+",
"+  XXX$Oo&-oO$XXXXX+",
"+ XXXX$o.-$.o%XXXXX+",
"+XXXXX$-$OO%$-XXXX +",
"+XXXXX@-O..O$&XXX  +",
"+XXXXX@$....%-XXX  +",
"+XXXXX#&o$%o-&XX   *",
"+XXXXXXXXXXXXXXX  =*",
"* XXXXXXXXXXXXX  = *",
"* XXXXXXXXXXX   ==**",
"*= XXXXXXXXX   ==  =",
"= =  XXXXX    = * *=",
"==***++++++++****==="
};
