/* XPM */
static char *_31d700a4888423983cb74ce7f136a53Q1dZVtVjbZ5CuX1w[] = {
/* columns rows colors chars-per-pixel */
"32 32 158 2 ",
"   c #000004",
".  c #01010C",
"X  c #000313",
"o  c #040914",
"O  c #0B0E17",
"+  c #01061B",
"@  c #020B1D",
"#  c #0A0F1C",
"$  c #14151D",
"%  c #010B23",
"&  c #010E29",
"*  c #061424",
"=  c #081726",
"-  c #091927",
";  c #02122D",
":  c #05192F",
">  c #0B1D2A",
",  c #111421",
"<  c #171A23",
"1  c #1B1E2A",
"2  c #021431",
"3  c #041A34",
"4  c #091E34",
"5  c #041E39",
"6  c #0B202D",
"7  c #11212E",
"8  c #1E202A",
"9  c #0D2132",
"0  c #0C243C",
"q  c #142634",
"w  c #1A2534",
"e  c #172937",
"r  c #11263C",
"t  c #1A2739",
"y  c #162C3A",
"u  c #182F3C",
"i  c #193232",
"p  c #1B313E",
"a  c #20242D",
"s  c #372D24",
"d  c #2C2D33",
"f  c #2C3336",
"g  c #25343C",
"h  c #2F3138",
"j  c #323634",
"k  c #3F3D36",
"l  c #343539",
"z  c #373A3E",
"x  c #413832",
"c  c #3D433E",
"v  c #4E4136",
"b  c #162E41",
"n  c #1D3442",
"m  c #1F3844",
"M  c #163249",
"N  c #223643",
"B  c #213946",
"V  c #2C3B42",
"C  c #243D4B",
"Z  c #283F4E",
"A  c #363841",
"S  c #244141",
"D  c #25404E",
"F  c #2F424A",
"G  c #3A4847",
"H  c #36444F",
"J  c #3F4C4A",
"K  c #274250",
"L  c #324B55",
"P  c #3B4C55",
"I  c #335353",
"U  c #3C525B",
"Y  c #3F6161",
"T  c #424442",
"R  c #4F4543",
"E  c #404947",
"W  c #4C4942",
"Q  c #42464C",
"!  c #434C4F",
"~  c #4B484F",
"^  c #4E524D",
"/  c #455353",
"(  c #4D5453",
")  c #4A5956",
"_  c #40585B",
"`  c #575557",
"'  c #5B5751",
"]  c #565C56",
"[  c #515B5A",
"{  c #60554B",
"}  c #6C5D4E",
"|  c #645052",
" . c #605B54",
".. c #6D5E53",
"X. c #615C5B",
"o. c #7A5D5F",
"O. c #55605E",
"+. c #6B6050",
"@. c #706759",
"#. c #766C5B",
"$. c #7C6A5D",
"%. c #4B6168",
"&. c #5B7774",
"*. c #6D6561",
"=. c #606569",
"-. c #7A6664",
";. c #736B62",
":. c #767066",
">. c #7E746A",
",. c #81725C",
"<. c #8B7C5D",
"1. c #867D7E",
"2. c #907E74",
"3. c #91806F",
"4. c #9A8E6F",
"5. c #858173",
"6. c #958475",
"7. c #988370",
"8. c #958B77",
"9. c #9A8977",
"0. c #948A79",
"q. c #9C8C7D",
"w. c #98927F",
"e. c #AE957E",
"r. c #9D8881",
"t. c #9E9483",
"y. c #98958E",
"u. c #8E9191",
"i. c #A28283",
"p. c #A59684",
"a. c #A99085",
"s. c #AD9887",
"d. c #A2968D",
"f. c #A59889",
"g. c #AC9D8D",
"h. c #B99C88",
"j. c #AE9C94",
"k. c #B0A18C",
"l. c #A7A394",
"z. c #AAA392",
"x. c #ADA89C",
"c. c #B3A795",
"v. c #BBA495",
"b. c #B1A39A",
"n. c #B4AB9D",
"m. c #BAAD9E",
"M. c #BAB39F",
"N. c #B3ACA0",
"B. c #BCAEA6",
"V. c #BEB4A5",
"C. c #BBB4A8",
"Z. c #C6AEA4",
"A. c #C3B3A4",
"S. c #CBB6A7",
"D. c #C2B9A7",
"F. c #C4B4AC",
"G. c #C5BCAE",
"H. c #CEC5B3",
/* pixels */
"S S I I %.I I c S S I I I %.I I I S i i I I c I I I S S S I S i ",
"S p p p u u y y p p u p u u p p p n n n m m M S C m C m C C C S ",
"I m p p p p M p p p p p g j k W T T G N B B C C C m D C C C C I ",
"I m m n m p m p p m p c s v +.;.R #.<.<.P m m C C D D C Z D C %.",
"I m m p m n n n n p ! x $.g.F.G.f.6.} 3.4.F C m m Z C Z Z K K I ",
"I m m m p m n n n n )  .9.c.A.H.H.D.t.} ,.] C C K Z Z Z K C K S ",
"S m m m m p n M n N ) A >.p.2.*.d.n.q.v #.^ B S m K C K Z Z K i ",
"S m m n n m p p n N G w < g.6.~ Q d.M.@.} @.B B C K D K K Z D i ",
"i m p m n n b n n p U ` X.Z.F.B.F.S.v.0.j.1.m B m D D D D D D S ",
"i n n p n p p p p p U ! d -.a.v.Z.h.k.f.b.H m m m C C D D D D S ",
"c m p p p p p p u n m %.A o.i.q.e.s.k.8.V M n n m C C C C D D I ",
"S p p p u p u i u u u L P | r.s.7.2.g.8.Q n n n m m m C C D C Y ",
"I y u y y y y y u y y y C ( @...} w.m.v.V p p n n n m m B C D Y ",
"S y y y y i y y y y y y y _ / { p.m.m.M.l.[ m u b n n n M S B Y ",
"I i y q y y y y y y y e g &./ ' 8.z.m.C.A.V.y.n 0 y b M m m M I ",
"Y y y y q y y y r y 4 w J &.O.' :.x.N.b.n.y.r 3 3 3 5 b M n n I ",
"c q q q q q e 6 : ; ; ; t [ >.2.5.t.f.x.u.r 2 3 2 2 2 2 3 b b t ",
"S q 7 q q q 0 ; ; ; ; 2 ; ; u E @.t.z.=.2 2 2 2 2 2 2 2 2 3 u u ",
"i 9 q q q q 3 @ + + + % % & ; ; & t N ; 2 2 2 2 2 ; ; & 2 ; r i ",
"i 6 7 q 7 9 3 % ; % % % % % & % & ; ; 2 2 2 2 2 & % & & ; ; 4 i ",
"S 6 7 6 6 9 = @ ; ; + + + % & ; ; & ; ; 2 2 2 & % + % % & & 4 V ",
"S 6 6 6 6 6 ; . 3 ; % + % % % & & ; ; & 2 ; & & + . + % % % ; S ",
"I 6 > > 6 6 %   0 * + + % + + % @ % & & & & & % + X X + % % % S ",
"I - - - - 6 o   ; X . X X X X X X + + % % % % % + X . X + + % I ",
"c * - - - - ;   * .   . . . . . . X X + + X + + X X   . + + + I ",
"I * * - * - @     X                 . . X X X X X X #   X X + Y ",
"I * * * = > o     @ o     . . . . . . . . X X X X X = . . X X Y ",
"I * * * * g O     @ ; + X . . . . . . X . X X X X X = * . O $ I ",
"S * * * g f . .   @ 2 + X . . . . . X . X X X X . # * * # h z I ",
"S @ @ V G l a o . * ; + . .   . . . . . . X . . . * * * # 8 f S ",
"i @ g c l l l , X + + X . .   . . . . . . . . . X * @ * * O 1 S ",
"i i i S S I I I S i S S I I I I Y Y Y I I I Y Y I I I I B i i S "
};
